<?xml version="1.0" ?><svg height="37mm" id="svg5" version="1.1" viewBox="0 0 37 37" width="37mm" xmlns="http://www.w3.org/2000/svg" xmlns:svg="http://www.w3.org/2000/svg"><defs id="defs2"/><g id="layer1" transform="translate(-225.94928,-25.685176)"><path d="m 242.25306,28.901029 v 1.012862 2.025751 h -3.03862 v 1.012843 h 2.02577 v 1.012906 h -2.02577 v 1.012863 h -1.01286 v 1.012843 1.012909 h 1.01286 v 1.012861 1.012845 h 1.01285 v 1.012907 h 2.02577 v 1.012858 h -1.01285 v 1.012859 h -1.01292 v 1.012895 h -1.01285 v 1.012861 h -1.01286 v 2.025749 h -1.01289 v 3.038615 1.012861 1.012857 h 1.01289 v 1.012895 1.012863 h 1.01286 v 1.012858 h -1.01286 v 1.012894 2.025719 h 1.01286 v 2.025754 h -2.02575 v 2.025753 h 6.07723 v -2.025753 -2.025754 -2.025719 h 1.01288 V 54.22279 h 1.01289 1.01283 v 1.012894 h 1.01291 v 2.025719 2.025754 2.025753 h 6.0772 v -2.025753 h -2.02577 v -2.025754 h 1.01288 V 55.235684 54.22279 h -1.01288 v -1.012858 h 1.01288 v -1.012863 -1.012895 h 1.01289 v -2.025718 -3.038615 h -1.01289 v -2.025749 h -1.01288 v -1.012861 h -1.0128 v -1.012895 h -1.01294 v -1.012859 -1.012858 h 1.01294 v -1.012907 h 2.02568 v -1.012845 -2.02577 h -1.01288 v -2.025706 h -1.0128 v -1.012906 -1.012843 -1.012866 h -1.01294 v -1.012885 h -2.02569 v -1.012862 z" id="rect964-6-8-7" style="fill:#000000;fill-opacity:0.203343;stroke:none;stroke-width:0.382821;stroke-linecap:round;stroke-linejoin:round;stroke-miterlimit:2;stroke-dasharray:none;stroke-opacity:1"/><path d="m 243.26592,31.939642 v 1.012883 h -1.01286 v 1.012866 h 2.02569 v -1.012866 -1.012883 z m 3.0386,0 v 2.025749 h -1.01283 v 2.025749 h 2.02568 v -2.025749 -1.012866 h 2.02575 v -1.012883 h -2.02575 z m 3.0386,1.012883 v 4.051481 h -1.01284 v 1.012861 h -1.01291 v 1.012886 h 2.02575 v -1.012886 h 2.02574 V 37.004006 34.978254 H 250.356 v -2.025729 z m -8.10296,2.025729 v 1.012886 h -3.03863 v 1.012866 1.012861 h 5.06439 v -1.012861 h 1.01283 V 35.99114 h -2.02569 v -1.012886 z m 0,4.051499 v 1.012866 h 1.0129 v -1.012866 z m 1.0129,1.012866 v 6.077222 h 4.05146 v -6.077222 z m -1.0129,0 h -1.01287 v 1.012858 h -1.01285 v 1.012894 h -1.01291 v 1.01286 h -1.01284 v 2.025755 h -1.01286 v 3.038615 h 1.01286 1.01284 1.01291 1.01285 v -4.051509 h 1.01287 z m 6.07721,0 v 1.012858 1.012894 1.01286 1.012861 h 1.01291 v 1.012894 3.038615 h 4.05146 v -3.038615 h -1.01288 V 43.081231 H 250.356 v -1.01286 h -1.01288 v -1.012894 h -1.01284 v -1.012858 z m -9.11584,16.205926 V 58.2743 h -2.0257 v 2.025753 h 6.07723 V 58.2743 56.248545 Z m 8.10299,0 v 2.025755 2.025753 h 6.07722 V 58.2743 H 250.356 v -2.025755 z" id="rect964-4-3" style="fill:#ac7c00;fill-opacity:1;stroke-width:0;stroke-miterlimit:2"/><path d="m 241.24016,27.888163 v 1.012866 h 1.0129 v 1.012883 h 1.01286 v 1.012864 h -5.06439 v 1.012866 h 11.14159 v -1.012866 -1.012864 h -1.01284 v -1.012883 h -2.02576 v -1.012866 z m 6.07721,11.14159 v 1.012866 h 1.01291 v -1.012866 z m 0,1.012866 h -1.01285 v 6.077222 h -4.05146 v -2.025749 -4.051473 h -1.0129 v 4.051473 h -1.01287 v 7.090119 h -1.01285 v 1.012858 h -1.01291 v 1.012863 h -1.01284 v 1.012893 2.02572 h 5.06437 v -2.02572 h 1.01286 v -1.012893 h 1.01283 1.01294 v 1.012893 h 1.01283 v 2.02572 h 5.06434 v -2.02572 -1.012893 H 250.356 v -1.012863 h -1.01288 v -1.012858 h -1.01284 v -7.090119 h -1.01291 z m -6.07721,7.090083 h 1.0129 v 1.012899 h -1.0129 z m 5.06436,0 h 1.01285 v 1.012899 h -1.01285 z" id="rect6104-3-9" style="fill:#f83800;fill-opacity:1;stroke-width:0;stroke-miterlimit:2"/><path d="m 241.24016,28.901029 v 2.025747 h 1.0129 1.01286 v -1.012864 h -1.01286 v -1.012883 z m -1.01287,3.038613 v 1.012883 h -2.02576 v 1.012866 h -1.01284 v 1.012863 1.012886 h 4.05147 v -1.012886 h 1.0129 v 1.012886 h 2.02569 v 1.012866 h -1.01283 v 1.012861 h -4.05148 v 1.012886 h 3.03862 v 1.012866 h 5.06431 v -1.012866 -1.012886 h 1.01291 v -1.012861 h 1.01284 V 35.99114 32.952525 h -2.02575 v 3.038615 h -2.02568 v -2.025749 h 1.01283 v -2.025749 h -1.01283 -1.01294 v 2.025749 h -2.02569 v -1.012866 h 1.01286 v -1.012883 z m 1.01287,15.19306 v 1.012899 h 1.0129 v -1.012899 z m 5.06436,0 v 1.012899 h 1.01285 v -1.012899 z m -10.12869,1.012899 v 1.012855 1.012861 h 1.01286 v 1.012894 1.012858 h 2.02575 v -1.012858 h 1.01285 v -1.012894 -1.012861 -1.012855 z m 12.15445,0 v 2.025716 1.012894 h 1.01284 v 1.012858 h 2.02574 v -1.012858 -1.012894 h 1.01288 v -2.025716 z" id="rect30225-7-4" style="fill:#ffa440;fill-opacity:1;stroke-width:0;stroke-miterlimit:2"/></g></svg>